<svg xmlns="http://www.w3.org/2000/svg" width="708.633" height="708.541" viewBox="0 0 708.633 708.541">
  <g id="Group_322" data-name="Group 322" transform="translate(-0.005 -371.459)">
    <path id="Path_166" data-name="Path 166" d="M234.8,1079.625h0Zm59.818-296.458.693.116c-77.474-102.909-168.671-150.132-227.1-117.474-34.5,19.278-51.576,64.681-48.069,127.848,3.481,62.71,26.827,135.588,65.738,205.205,17.134,30.66,35.113,57.809,53.45,80.763h93.407L158.891,952.088l-18.2-17.208.054-.057a1.7,1.7,0,0,1-.609-1.312,1.783,1.783,0,0,1,1.511-1.691l3.919-.6-6.889-10.137-77.663,3.38c-.026,0-.051,0-.077,0h0a1.751,1.751,0,0,1-1.1-.417c-.106-.085-.143-.21-.228-.317a1.7,1.7,0,0,1-.371-.516c-.017-.057.022-.11.011-.166s-.071-.088-.078-.148a1.757,1.757,0,0,1,.143-.883c.022-.052.042-.093.067-.143a1.745,1.745,0,0,1,.8-.775c.027-.014.033-.049.062-.06l96.3-41.345-12.772-32.986L81.3,843.177a1.785,1.785,0,0,1-.26-3.53l213.691-44.025-2.156-10.331a1.781,1.781,0,0,1,.46-1.6A1.739,1.739,0,0,1,294.615,783.167Z" fill="#ffbf00"/>
    <path id="Path_167" data-name="Path 167" d="M13.775,949.136c.823-7.782,4.923-34.909,23.288-64.186-.453-1.5-.937-3.014-1.372-4.514-21.1,32.289-24.966,62.74-25.575,69.414l-9.736,1.9V975.09c21.959,15.4,66.988,16.54,79.438,16.54.877,0,1.591-.005,2.125-.012-9.152-16.894-17.383-33.943-24.634-50.974ZM278.06,854l45.6-26.364,88.6-21.317.053-.013L472.605,791.8v-3.673l-60.8,14.628L294.615,783.167a1.74,1.74,0,0,0-1.583.522,1.784,1.784,0,0,0-.46,1.6l2.157,10.331L81.038,839.647a1.785,1.785,0,0,0,.26,3.53l62.466,3.529,12.772,32.986-96.3,41.345c-.029.011-.035.046-.062.06a1.736,1.736,0,0,0-.8.775c-.025.05-.045.091-.067.143a1.757,1.757,0,0,0-.143.883c.007.06.065.091.078.148s-.028.109-.011.166a1.7,1.7,0,0,0,.371.516c.085.107.122.232.228.317a1.751,1.751,0,0,0,1.1.417h0c.026,0,.051,0,.077,0l77.662-3.38,6.89,10.137-3.919.6a1.783,1.783,0,0,0-1.511,1.691,1.7,1.7,0,0,0,.609,1.312l-.054.057,18.2,17.208,73.847,127.537h30.714l7.365-102,45.759,10.28c11.934,36.81,24.082,73.183,31.281,91.721h3.828c-6.968-17.694-19.079-53.884-31.066-90.819,10.433,2.3,45.979,9.99,83.795,16.3l25.859,74.523h3.781l-25.629-73.864c22.442,3.666,45.485,6.766,64.181,7.889v-8.476l-15.478-3.166,15.478-16.1v-4.4l-74.717-14.64L381.13,927.474c32.79-.515,83.357-2.05,91.475-2.3v-9.861l-140.457-1.286c7.109-4.522,20.891-12.309,31.867-12.584l108.59,2.492v-3.571l-102.77-2.356-7.925-19.787,110.7,5.813h0v-36.8l-3.377.714L359.044,874.5l-64.6,1.713L345.3,865.7l127.3-26.326v-3.646L344.577,862.2l-61.762,12.772h0L158.594,900.659l-80.761,16.7,81.4-34.971ZM208.994,960.077l-47.82-10.743-13.19-12.472L312.758,976.1q1.265,3.921,2.539,7.859Zm77.854-15.187V929.179l11.457,1.658c1.6,5.047,3.269,10.307,5,15.734Zm182.2,39.559-16.065,16.713-132.725-27.14c11.439-4.113,40.081-11.956,76.008-3.834ZM358,878.072l7.95,19.847-1.94-.044c-16.631.414-37.808,15.79-38.7,16.444a1.786,1.786,0,0,0-.644,1.987,1.717,1.717,0,0,0,1.063,1.031l-.031.077c.869.351,21.377,8.6,27.394,9.911a92.2,92.2,0,0,0,10.629.318c3.782,0,8.4-.041,13.549-.112l16.383,38.512c-39.982-8.065-70.691,2.889-78.421,6.1-13.678-42.5-26.121-82.389-29.155-92.143ZM285.146,889c1.911,6.12,4.585,14.66,7.8,24.885l-103.2-3.839ZM175.8,913.122l107.473,15.542v15.86L149.639,930.861l-7.072-10.405ZM95.15,840.384,297.2,798.757a1.785,1.785,0,0,0,1.387-2.112l-1.989-9.528L402.933,804.89l-80.359,19.334a1.873,1.873,0,0,0-.474.19l-45.362,26.227Z" fill="#ff4700"/>
    <rect id="Rectangle_40" data-name="Rectangle 40" width="472.226" height="472.166" transform="translate(0.38 607.459)" fill="none" stroke="#ff4700" stroke-miterlimit="10" stroke-width="0.75"/>
    <g id="Group_321" data-name="Group 321">
      <path id="Path_168" data-name="Path 168" d="M567.507,608.311l4.45-.874h-8.888a121.967,121.967,0,0,0-90.464,90.452v9.066l.875-4.629C482.653,655.265,520.439,617.483,567.507,608.311Zm-55.825-.138,1.094-.736H509.6a142.861,142.861,0,0,0-36.993,36.988v3.16l.738-1.077A141.14,141.14,0,0,1,511.682,608.173Zm-32.428-.091.716-.645h-2.62c-1.612,1.548-3.2,3.139-4.745,4.744v2.58l.645-.676C475.185,612.046,477.2,610.027,479.254,608.082Zm-5.911,195.911-.738-1.077v3.16A142.849,142.849,0,0,0,509.6,843.065h3.178l-1.094-.737A141.112,141.112,0,0,1,473.343,803.993Zm-.093,32.423-.645-.676v2.58c1.542,1.6,3.133,3.2,4.745,4.745h2.62l-.716-.645C477.2,840.474,475.185,838.455,473.25,836.416Zm.23-88.241-.875-4.628v9.065a121.97,121.97,0,0,0,90.464,90.453h8.888l-4.45-.875C520.439,833.018,482.653,795.236,473.48,748.175ZM701.614,842.42l-.715.645h2.619c1.613-1.549,3.2-3.14,4.745-4.745v-2.58l-.645.676C705.684,838.455,703.664,840.474,701.614,842.42Zm-88.253-.23-4.45.875H617.8a121.969,121.969,0,0,0,90.463-90.453v-9.065l-.874,4.628C698.215,795.236,660.429,833.018,613.361,842.19Zm55.825.138-1.094.737h3.178a142.818,142.818,0,0,0,36.993-36.989v-3.16l-.738,1.077A141.1,141.1,0,0,1,669.186,842.328Zm19.671-117.077a98.423,98.423,0,1,0-98.423,98.409A98.527,98.527,0,0,0,688.857,725.251Zm-98.423,96.628a96.629,96.629,0,1,1,96.642-96.628A96.743,96.743,0,0,1,590.434,821.879ZM703.518,607.437H700.9l.715.645c2.05,1.945,4.07,3.964,6,6l.645.676v-2.58C706.722,610.576,705.131,608.985,703.518,607.437Zm-85.718,0h-8.889l4.45.874c47.068,9.172,84.854,46.954,94.028,94.015l.874,4.629v-9.066A121.966,121.966,0,0,0,617.8,607.437Zm53.47,0h-3.178l1.094.736a141.126,141.126,0,0,1,38.339,38.335l.738,1.077v-3.16A142.83,142.83,0,0,0,671.27,607.437Z" fill="#ff4700"/>
      <path id="Path_169" data-name="Path 169" d="M590.434,648.016a77.235,77.235,0,1,0,77.245,77.235A77.24,77.24,0,0,0,590.434,648.016Zm23.018,109.065-46.172-.071-14.2-43.929L590.476,686,627.789,713.2Z" fill="#ffbf00"/>
      <rect id="Rectangle_41" data-name="Rectangle 41" width="235.658" height="235.628" transform="translate(472.605 607.437)" fill="none" stroke="#ff4700" stroke-miterlimit="10" stroke-width="0.75"/>
    </g>
    <g id="_09A-L" data-name="09A-L">
      <path id="Path_170" data-name="Path 170" d="M429.759,543.2H408.335V500.358h21.424Zm21.423,42.841H429.759v21.421h42.846v-107.1H451.182Zm21.423-214.207H386.911v42.842h21.423V393.255h42.846v64.262h21.424V393.255h0ZM258.371,586.041V521.779h21.423v-21.42H258.371v-107.1h21.423V436.1h42.847v-21.42H301.218V393.255h42.847V371.834H236.948V607.462H386.912V586.041ZM429.758,414.676H408.335V436.1h21.423Z" fill="#ff4700"/>
      <path id="Path_171" data-name="Path 171" d="M279.794,457.517h64.271v21.421H301.218v21.42H279.794Zm42.847,64.262V543.2H279.794v21.421h64.271V500.359H322.641Zm85.694,64.262h21.424v-21.42H408.335ZM365.488,393.255H344.065V436.1h21.423Zm0,64.262V586.041h21.424v-107.1h64.27V457.517Z" fill="#ffbf00"/>
      <path id="_Rectangle_" data-name="&lt;Rectangle&gt;" d="M472.605,500.358v107.1H429.759M344.065,371.834H236.948V607.462H386.912m85.693-149.945V371.834H386.911" fill="none" stroke="#ff4700" stroke-miterlimit="10" stroke-width="0.75"/>
    </g>
    <g id="_05B-L" data-name="05B-L">
      <path id="Path_172" data-name="Path 172" d="M472.605,960.427H589.979V843.068H472.605Zm58.685-20.783a197.621,197.621,0,0,1-39.7-37.9,197.715,197.715,0,0,1,39.7-37.894A197.768,197.768,0,0,1,571,901.746a197.674,197.674,0,0,1-39.708,37.9" fill="#ff4700"/>
      <rect id="_Rectangle_2" data-name="&lt;Rectangle&gt;" width="117.374" height="117.359" transform="translate(472.605 843.068)" fill="none" stroke="#ff4700" stroke-miterlimit="10" stroke-width="0.75"/>
    </g>
    <g id="_05D-L" data-name="05D-L">
      <path id="Path_173" data-name="Path 173" d="M223.423,503.6v82.58H205.067V537.067l-60.319,60.31h-15.1v-14.01l61.41-61.412H142.368V503.6Z" fill="#ffbf00"/>
      <rect id="Rectangle_42" data-name="Rectangle 42" width="117.374" height="117.374" transform="translate(119.552 490.096)" fill="none" stroke="#ff4700" stroke-miterlimit="10" stroke-width="0.75"/>
    </g>
  </g>
</svg>
