<svg xmlns="http://www.w3.org/2000/svg" width="353.786" height="236.495" viewBox="0 0 353.786 236.495">
  <g id="Group_323" data-name="Group 323" transform="translate(-1566.209)">
    <g id="_01C-L" data-name="01C-L">
      <path id="Path_174" data-name="Path 174" d="M1581.8.375V.954L1566.584,16.17v2.021L1581.8,2.975V4.983L1566.584,20.2V22.22L1581.8,7V9.012l-15.216,15.216V26.25L1581.8,11.034v2.007l-15.216,15.217v2.02L1581.8,15.063v2.008l-15.216,15.215v2.021L1581.8,19.091V21.1l-15.216,15.216v2.022L1581.8,23.121v2.008l-15.216,15.216v2.021L1581.8,27.15v2.008l-15.216,15.215V46.4L1581.8,31.179v2.008L1566.584,48.4v2.021L1581.8,35.208v2.008l-15.216,15.216v2.021L1581.8,39.237v2.008l-15.216,15.216v2.021L1581.8,43.266v2.008L1566.584,60.49v2.021L1581.8,47.295V49.3l-15.216,15.216v2.022L1581.8,51.325v2.007l-15.216,15.217v2.02L1581.8,55.354v2.008l-15.216,15.215V74.6L1581.8,59.382V61.39l-15.216,15.216v2.022L1581.8,63.412V65.42l-15.216,15.216v2.02L1581.8,67.441v2.008l-15.216,15.215v2.022L1581.8,71.47v2.008l-15.216,15.216v2.021L1581.8,75.5v2.008l-15.216,15.216v2.021L1581.8,79.528v2.008l-15.216,15.215v2.022L1581.8,83.557v2.008l-15.216,15.216V102.8L1581.8,87.586v2.008l-15.216,15.216v2.022L1581.8,91.615v2.008l-15.216,15.217v2.02L1581.8,95.645v2.008l-15.216,15.215v2.021L1581.8,99.673v2.008L1566.584,116.9v.852h1.169L1581.8,103.7v2.007l-12.039,12.039h2.022l10.017-10.017v2.008l-8.009,8.009h2.021l5.988-5.988v2.008l-3.98,3.98h2.021l1.959-1.959v1.958h102.158V104.773h-36.05V80.23a22.786,22.786,0,0,1,0-44.684v-22.2h36.05V.375Zm-3.449,0-11.767,11.766v2.021L1580.371.375Zm-11.767,0v1.7l1.7-1.7Zm7.737,0-7.737,7.737v2.021l9.759-9.758Zm-4.029,0-3.708,3.707V6.1l5.729-5.729ZM1605.748,8.4a9.441,9.441,0,0,1,1.9,1.816,1.9,1.9,0,0,1-3.8,0A9.461,9.461,0,0,1,1605.748,8.4Zm0,8.482a15.309,15.309,0,0,1,3.085,2.945,15.341,15.341,0,0,1-3.085,2.946,15.373,15.373,0,0,1-3.086-2.946A15.34,15.34,0,0,1,1605.748,16.886Zm0,9.861a21.287,21.287,0,0,1,4.271,4.077,21.315,21.315,0,0,1-4.271,4.077,21.257,21.257,0,0,1-4.271-4.077A21.229,21.229,0,0,1,1605.748,26.747Zm0,12.177a25.019,25.019,0,0,1,5.023,4.794,25.024,25.024,0,0,1-5.023,4.8,24.947,24.947,0,0,1-5.023-4.8A24.942,24.942,0,0,1,1605.748,38.924Zm0,70.8a9.428,9.428,0,0,1-1.9-1.815,1.9,1.9,0,0,1,3.8,0A9.409,9.409,0,0,1,1605.748,109.72Zm0-8.481a15.345,15.345,0,0,1-3.086-2.946,15.4,15.4,0,0,1,3.086-2.945,15.364,15.364,0,0,1,3.085,2.945A15.313,15.313,0,0,1,1605.748,101.239Zm0-9.861a21.234,21.234,0,0,1-4.271-4.078,21.224,21.224,0,0,1,4.271-4.076,21.282,21.282,0,0,1,4.271,4.076A21.292,21.292,0,0,1,1605.748,91.378Zm0-12.177a24.919,24.919,0,0,1-5.023-4.795,25.007,25.007,0,0,1,5.023-4.8,25.085,25.085,0,0,1,5.023,4.8A25,25,0,0,1,1605.748,79.2Zm0-13.82a33.379,33.379,0,0,1-6.706-6.4,33.324,33.324,0,0,1,6.706-6.4,33.375,33.375,0,0,1,6.706,6.4A33.431,33.431,0,0,1,1605.748,65.381Zm36.881,2.746a13.616,13.616,0,0,0,5.188,3.23V45.589a13.622,13.622,0,0,0-5.188,22.538Zm13.332,28.522h28V21.472h-28Zm16.117-42.5a25.632,25.632,0,0,1,5.142,4.908,25.614,25.614,0,0,1-5.142,4.91,25.588,25.588,0,0,1-5.142-4.91A25.606,25.606,0,0,1,1672.078,54.152Z" fill="#ff4700"/>
      <path id="_Rectangle_" data-name="&lt;Rectangle&gt;" d="M1683.958,104.773v12.976H1566.584V.375h117.374V13.349m0,83.3V21.472" fill="none" stroke="#ff4700" stroke-miterlimit="10" stroke-width="0.75"/>
    </g>
    <path id="Path_175" data-name="Path 175" d="M1893.236,89.458c0,50.1-41.026,90.866-91.445,90.866s-91.444-40.763-91.444-90.866h38.623a52.822,52.822,0,0,0,105.642,0Zm-92.167,33.2c13.6-9.21,25.314-20.717,35.8-33.169-10.464-12.468-22.152-24-35.741-33.23a170.518,170.518,0,0,0-34.416,33.168A170.435,170.435,0,0,0,1801.069,122.657Z" fill="#ff4700"/>
    <rect id="Rectangle_43" data-name="Rectangle 43" width="235.658" height="235.658" transform="translate(1683.962 0.462)" fill="none" stroke="#ff4700" stroke-miterlimit="10" stroke-width="0.75"/>
  </g>
</svg>
